<svg width="80" height="80" viewBox="0 0 80 80" fill="none" xmlns="http://www.w3.org/2000/svg">
<circle cx="40" cy="40" r="39" fill="#C6FF6B" stroke="black" stroke-width="2"/>
<path d="M47.9554 49C46.0064 49 44.3619 48.6124 43.0219 47.8372C41.693 47.062 40.6908 45.9657 40.0152 44.5482C39.3397 43.1307 39.002 41.464 39.002 39.5482C39.002 38.1639 39.1238 36.8239 39.3674 35.5282C39.6221 34.2326 39.9876 33.0089 40.4637 31.8571C40.9399 30.6944 41.5269 29.6368 42.2245 28.6844C42.9333 27.7209 43.7417 26.8904 44.6498 26.1927C45.5579 25.495 46.5601 24.9579 47.6564 24.5814C48.7639 24.1938 49.9599 24 51.2445 24C53.9687 24 56.095 24.8472 57.6232 26.5415C59.1625 28.2248 59.9322 30.567 59.9322 33.5681C59.9322 34.9081 59.8214 36.2204 59.6 37.505C59.3785 38.7785 59.0462 39.9911 58.6033 41.1429C58.1603 42.2946 57.6066 43.3522 56.9422 44.3156C56.2777 45.268 55.5025 46.093 54.6166 46.7907C53.7306 47.4884 52.734 48.031 51.6265 48.4186C50.5191 48.8062 49.2954 49 47.9554 49ZM48.0551 46.5249C49.0075 46.5249 49.8879 46.3588 50.6963 46.0266C51.5047 45.6944 52.2356 45.2292 52.889 44.6312C53.5534 44.0332 54.1348 43.33 54.6332 42.5216C55.1426 41.7132 55.569 40.8272 55.9123 39.8638C56.2556 38.8893 56.5158 37.8649 56.693 36.7907C56.8702 35.7165 56.9588 34.6202 56.9588 33.5017C56.9588 31.2868 56.4327 29.5648 55.3807 28.3355C54.3397 27.1063 52.8945 26.4917 51.0451 26.4917C50.0928 26.4917 49.2068 26.6523 48.3873 26.9734C47.5678 27.2835 46.8203 27.732 46.1448 28.3189C45.4693 28.8948 44.8713 29.5814 44.3508 30.3787C43.8414 31.1761 43.4095 32.062 43.0551 33.0365C42.7007 34 42.4294 35.0244 42.2412 36.1096C42.064 37.1949 41.9754 38.3189 41.9754 39.4817C41.9754 40.9435 42.2135 42.2004 42.6897 43.2525C43.1659 44.3045 43.858 45.113 44.7661 45.6777C45.6742 46.2425 46.7705 46.5249 48.0551 46.5249Z" fill="#121212"/>
<path d="M28.9535 49C27.0044 49 25.3599 48.6124 24.0199 47.8372C22.691 47.062 21.6888 45.9657 21.0133 44.5482C20.3378 43.1307 20 41.464 20 39.5482C20 38.1639 20.1218 36.8239 20.3654 35.5282C20.6202 34.2326 20.9856 33.0089 21.4618 31.8571C21.938 30.6944 22.5249 29.6368 23.2226 28.6844C23.9313 27.7209 24.7398 26.8904 25.6478 26.1927C26.5559 25.495 27.5581 24.9579 28.6545 24.5814C29.7619 24.1938 30.9579 24 32.2425 24C34.9668 24 37.093 24.8472 38.6213 26.5415C40.1606 28.2248 40.9302 30.567 40.9302 33.5681C40.9302 34.9081 40.8195 36.2204 40.598 37.505C40.3765 38.7785 40.0443 39.9911 39.6013 41.1429C39.1584 42.2946 38.6047 43.3522 37.9402 44.3156C37.2757 45.268 36.5006 46.093 35.6146 46.7907C34.7287 47.4884 33.732 48.031 32.6246 48.4186C31.5172 48.8062 30.2935 49 28.9535 49ZM29.0532 46.5249C30.0055 46.5249 30.8859 46.3588 31.6944 46.0266C32.5028 45.6944 33.2337 45.2292 33.887 44.6312C34.5515 44.0332 35.1329 43.33 35.6312 42.5216C36.1406 41.7132 36.567 40.8272 36.9103 39.8638C37.2536 38.8893 37.5138 37.8649 37.691 36.7907C37.8682 35.7165 37.9568 34.6202 37.9568 33.5017C37.9568 31.2868 37.4308 29.5648 36.3787 28.3355C35.3378 27.1063 33.8926 26.4917 32.0432 26.4917C31.0908 26.4917 30.2049 26.6523 29.3854 26.9734C28.5659 27.2835 27.8184 27.732 27.1429 28.3189C26.4673 28.8948 25.8693 29.5814 25.3488 30.3787C24.8394 31.1761 24.4075 32.062 24.0532 33.0365C23.6988 34 23.4275 35.0244 23.2392 36.1096C23.062 37.1949 22.9734 38.3189 22.9734 39.4817C22.9734 40.9435 23.2115 42.2004 23.6877 43.2525C24.1639 44.3045 24.856 45.113 25.7641 45.6777C26.6722 46.2425 27.7685 46.5249 29.0532 46.5249Z" fill="#121212"/>
<ellipse cx="33.5971" cy="41.2176" rx="3.21623" ry="4.50272" fill="#121212"/>
<ellipse cx="52.894" cy="41.2176" rx="3.21623" ry="4.50272" fill="#121212"/>
</svg>
